<svg width="976" height="117" viewBox="0 0 976 117" fill="none" xmlns="http://www.w3.org/2000/svg">
<g clip-path="url(#clip0_105_52)">
<path d="M2.21204 23.1546C1.70158 23.1546 1.21543 22.8105 1.06958 22.2697C0.899431 21.6306 1.26404 20.9669 1.89604 20.7703L40.4721 9.61082C41.1041 9.43876 41.7604 9.80747 41.9548 10.4466C42.125 11.0856 41.7604 11.7493 41.1284 11.946L2.55234 23.1054C2.55234 23.1054 2.33357 23.1546 2.21204 23.1546Z" fill="#FAB758" stroke="#FAB758" stroke-width="0.83" stroke-miterlimit="10"/>
<path d="M27.8807 39.9922C27.346 39.9922 26.8841 39.5989 26.7383 39.0581L17.1611 2.55632C16.991 1.91723 17.3799 1.25356 18.0119 1.0815C18.6439 0.909434 19.3002 1.30272 19.4703 1.94181L29.0475 38.4682C29.2177 39.1073 28.8287 39.7709 28.1967 39.943C28.0995 39.9676 28.0023 39.9922 27.8807 39.9922Z" fill="#FAB758" stroke="#FAB758" stroke-width="0.83" stroke-miterlimit="10"/>
</g>
<g clip-path="url(#clip1_105_52)">
<path d="M951.218 89.8581C951.072 89.5862 951.118 89.2279 951.367 88.9942C951.661 88.7192 952.122 88.722 952.409 89.0019L969.439 106.332C969.712 106.619 969.702 107.075 969.414 107.363C969.12 107.638 968.659 107.635 968.372 107.355L951.342 90.0252C951.342 90.0252 951.253 89.9229 951.218 89.8581Z" fill="#FAB758" stroke="#FAB758" stroke-width="1.2" stroke-miterlimit="10"/>
<path d="M949.517 108.389C949.364 108.104 949.443 107.745 949.692 107.511L966.561 91.8791C966.855 91.6041 967.323 91.6198 967.596 91.9069C967.87 92.1939 967.846 92.6569 967.551 92.932L950.67 108.571C950.375 108.846 949.907 108.83 949.634 108.543C949.593 108.499 949.552 108.454 949.517 108.389Z" fill="#FAB758" stroke="#FAB758" stroke-width="1.2" stroke-miterlimit="10"/>
</g>
<defs>
<clipPath id="clip0_105_52">
<rect width="43" height="41" fill="white"/>
</clipPath>
<clipPath id="clip1_105_52">
<rect width="26" height="25" fill="white" transform="translate(963.024 82) rotate(61.7627)"/>
</clipPath>
</defs>
</svg>
