<svg width="148" height="172" viewBox="0 0 148 172" fill="none" xmlns="http://www.w3.org/2000/svg">
<g clip-path="url(#clip0_105_26)">
<path d="M113.438 18.3972C129.282 31.8334 133.028 56.9583 121.596 73.1156C110.165 89.273 85.209 94.1332 67.1892 83.7405C60.8607 80.0864 54.9398 73.2213 56.8205 66.4926C58.5656 60.3287 66.1035 57.7035 72.6592 58.3529C90.9626 60.2013 103.468 81.6791 99.3978 98.9886C95.3091 116.326 78.8421 128.308 61.1862 132.351C43.5302 136.393 24.7615 133.78 6.59953 130.51" stroke="#605DBA" stroke-width="3.5" stroke-miterlimit="10" stroke-linecap="round"/>
<path d="M23.6321 119.69L5.70512 130.44L20.19 144.436" stroke="#605DBA" stroke-width="3.5" stroke-miterlimit="10" stroke-linecap="round"/>
</g>
<defs>
<clipPath id="clip0_105_26">
<rect width="160.68" height="69.0329" fill="white" transform="matrix(-0.559248 0.829001 0.829001 0.559248 90.0117 0.133301)"/>
</clipPath>
</defs>
</svg>
