<svg width="38" height="38" viewBox="0 0 38 38" fill="none" xmlns="http://www.w3.org/2000/svg">
<g id="icons8-apple 1" clip-path="url(#clip0_277_109)">
<path id="Vector" d="M25.365 -3.40529e-05C23.2097 0.145434 20.903 1.42793 19.475 3.15872C18.2252 4.68168 17.1772 6.91715 17.575 9.23872C17.2188 9.12887 16.8952 9.117 16.5063 8.97747C15.4464 8.60043 14.2352 8.19372 12.73 8.19372C9.74048 8.19372 6.6797 9.972 4.75001 12.9437C1.94157 17.2603 2.50563 24.8573 6.76876 31.35C7.51985 32.49 8.39563 33.7339 9.47626 34.7225C10.5569 35.7111 11.8631 36.4651 13.395 36.48C14.7042 36.4948 15.6156 36.0584 16.435 35.6962C17.2544 35.334 18.0174 35.0134 19.4513 35.0075C19.4602 35.0075 19.4661 35.0075 19.475 35.0075C20.903 34.9956 21.6422 35.3103 22.4438 35.6725C23.2453 36.0347 24.1478 36.4918 25.46 36.48C27.0216 36.4681 28.3486 35.6131 29.45 34.5562C30.5514 33.4993 31.4569 32.202 32.205 31.065C33.2767 29.4322 33.7072 28.5415 34.5325 26.7187C34.6186 26.5287 34.6216 26.309 34.5384 26.1161C34.4583 25.9231 34.3009 25.7717 34.105 25.6975C31.4034 24.6762 29.8627 22.2864 29.64 19.76C29.4174 17.2336 30.4861 14.6329 33.1788 13.1575C33.3777 13.0506 33.5172 12.8636 33.5647 12.6439C33.6092 12.4242 33.5558 12.1926 33.4163 12.0175C31.4836 9.61575 28.7642 8.19372 26.1013 8.19372C24.4031 8.19372 23.1563 8.5945 22.135 8.97747C21.9658 9.04278 21.8411 9.03684 21.6838 9.09622C22.7199 8.54997 23.6342 7.79293 24.32 6.91122C25.5669 5.31106 26.5288 3.03403 26.1725 0.641216C26.1131 0.249341 25.7599 -0.0297216 25.365 -3.40529e-05ZM24.5575 1.80497C24.507 3.33981 23.9816 4.842 23.1088 5.96122C22.1944 7.13684 20.6566 7.95028 19.1663 8.19372C19.193 6.71825 19.7749 5.18934 20.6625 4.10872C21.5947 2.98059 23.1384 2.16715 24.5575 1.80497ZM12.73 9.71372C13.9561 9.71372 14.9388 10.0314 15.9838 10.4025C17.0288 10.7736 18.1302 11.21 19.4275 11.21C20.6952 11.21 21.6986 10.7706 22.6813 10.4025C23.6639 10.0343 24.6436 9.71372 26.1013 9.71372C28.0042 9.71372 30.0616 10.7023 31.6825 12.4212C29.0878 14.2529 27.8736 17.1089 28.12 19.8787C28.3664 22.6782 30.0527 25.3353 32.8225 26.7187C32.2228 28.025 31.828 28.8889 30.9463 30.2337C30.2189 31.3411 29.355 32.5523 28.405 33.4637C27.455 34.3751 26.4486 34.9511 25.4363 34.96C24.4595 34.9689 23.9044 34.6779 23.0613 34.295C22.2181 33.912 21.1286 33.4726 19.4513 33.4875C17.7769 33.4964 16.6725 33.9179 15.8175 34.295C14.9625 34.672 14.4014 34.9689 13.4188 34.96C12.3797 34.9511 11.4149 34.4464 10.4975 33.6062C9.58017 32.7661 8.75188 31.6201 8.02751 30.5187C4.03751 24.4387 3.71688 17.2959 6.00876 13.775C7.68907 11.1892 10.358 9.71372 12.73 9.71372Z" fill="#FFFF00"/>
</g>
<defs>
<clipPath id="clip0_277_109">
<rect width="38" height="38" fill="white"/>
</clipPath>
</defs>
</svg>
