<svg width="38" height="38" viewBox="0 0 38 38" fill="none" xmlns="http://www.w3.org/2000/svg">
<g id="icons8-android 1" clip-path="url(#clip0_277_103)">
<path id="Vector" d="M12.445 -0.0237062C12.4123 -0.0177687 12.3797 -0.00886246 12.35 4.38317e-05C12.1006 0.0564501 11.8958 0.231607 11.8037 0.472075C11.7117 0.712544 11.7473 0.979732 11.8987 1.18754L13.5137 3.61004C10.7795 5.04692 8.81718 7.52583 8.35999 10.4738C8.35999 10.4827 8.35999 10.4886 8.35999 10.4975C8.35999 10.5065 8.35999 10.5124 8.35999 10.5213C8.35999 10.545 8.35999 10.5688 8.35999 10.5925C8.35999 10.6074 8.35999 10.6252 8.35999 10.64C8.35702 10.6786 8.35702 10.7202 8.35999 10.7588V11.8275C7.90874 11.5633 7.39811 11.4 6.83999 11.4C5.16858 11.4 3.79999 12.7686 3.79999 14.44V23.56C3.79999 25.2315 5.16858 26.6001 6.83999 26.6001C7.39811 26.6001 7.90874 26.4368 8.35999 26.1726V28.1201C8.35999 29.3699 9.39015 30.4001 10.64 30.4001H11.4V34.9601C11.4 36.6315 12.7686 38.0001 14.44 38.0001C16.1114 38.0001 17.48 36.6315 17.48 34.9601V30.4001H20.52V34.9601C20.52 36.6315 21.8886 38.0001 23.56 38.0001C25.2314 38.0001 26.6 36.6315 26.6 34.9601V30.4001H27.36C28.6098 30.4001 29.64 29.3699 29.64 28.1201V26.1726C30.0912 26.4368 30.6019 26.6001 31.16 26.6001C32.8314 26.6001 34.2 25.2315 34.2 23.56V14.44C34.2 12.7686 32.8314 11.4 31.16 11.4C30.6019 11.4 30.0912 11.5633 29.64 11.8275V10.7825C29.6489 10.7113 29.6489 10.64 29.64 10.5688C29.64 10.5599 29.64 10.554 29.64 10.545C29.64 10.5361 29.64 10.5302 29.64 10.5213C29.1977 7.55255 27.2353 5.05286 24.4862 3.61004L26.1012 1.18754C26.2883 0.932232 26.2942 0.587857 26.1191 0.323637C25.9469 0.0594188 25.6262 -0.0712062 25.3175 4.38317e-05C25.1216 0.0445751 24.9494 0.163325 24.8425 0.332544L23.0612 2.96879C21.8084 2.51754 20.4309 2.28004 19 2.28004C17.5691 2.28004 16.1916 2.51754 14.9387 2.96879L13.1575 0.332544C13.0061 0.0891067 12.73 -0.0474562 12.445 -0.0237062ZM19 3.80004C20.428 3.80004 21.7669 4.07911 22.9425 4.58379C22.9662 4.5927 22.99 4.60161 23.0137 4.60754C25.3917 5.64958 27.1225 7.60005 27.7875 9.88005H10.2125C10.8686 7.6327 12.5637 5.70598 14.8912 4.65504C14.9417 4.63723 14.9892 4.61348 15.0337 4.58379C16.2153 4.07317 17.5631 3.80004 19 3.80004ZM14.82 6.08004C14.1876 6.08004 13.68 6.59067 13.68 7.22005C13.68 7.85239 14.1876 8.36005 14.82 8.36005C15.4494 8.36005 15.96 7.85239 15.96 7.22005C15.96 6.59067 15.4494 6.08004 14.82 6.08004ZM23.18 6.08004C22.5506 6.08004 22.04 6.59067 22.04 7.22005C22.04 7.85239 22.5506 8.36005 23.18 8.36005C23.8123 8.36005 24.32 7.85239 24.32 7.22005C24.32 6.59067 23.8123 6.08004 23.18 6.08004ZM9.87999 11.4H28.12V28.1201C28.12 28.5476 27.7875 28.8801 27.36 28.8801H21.4225C21.3216 28.8593 21.2147 28.8593 21.1137 28.8801H12.3025C12.2016 28.8593 12.0947 28.8593 11.9937 28.8801H10.64C10.2125 28.8801 9.87999 28.5476 9.87999 28.1201V11.4ZM6.83999 12.92C7.68905 12.92 8.35999 13.591 8.35999 14.44V23.56C8.35999 24.4091 7.68905 25.08 6.83999 25.08C5.99093 25.08 5.31999 24.4091 5.31999 23.56V14.44C5.31999 13.591 5.99093 12.92 6.83999 12.92ZM31.16 12.92C32.0091 12.92 32.68 13.591 32.68 14.44V23.56C32.68 24.4091 32.0091 25.08 31.16 25.08C30.3109 25.08 29.64 24.4091 29.64 23.56V14.44C29.64 13.591 30.3109 12.92 31.16 12.92ZM12.92 30.4001H15.96V34.9601C15.96 35.8091 15.2891 36.4801 14.44 36.4801C13.5909 36.4801 12.92 35.8091 12.92 34.9601V30.4001ZM22.04 30.4001H25.08V34.9601C25.08 35.8091 24.4091 36.4801 23.56 36.4801C22.7109 36.4801 22.04 35.8091 22.04 34.9601V30.4001Z" fill="#FFFF00"/>
</g>
<defs>
<clipPath id="clip0_277_103">
<rect width="38" height="38" fill="white"/>
</clipPath>
</defs>
</svg>
