<svg width="12" height="12" viewBox="0 0 12 12" fill="none" xmlns="http://www.w3.org/2000/svg">
<g id="XCircle" clip-path="url(#clip0_222_141)">
<path id="Vector" d="M6 11.25C4.60761 11.25 3.27226 10.6969 2.28769 9.71231C1.30312 8.72774 0.75 7.39239 0.75 6C0.75 4.60761 1.30312 3.27226 2.28769 2.28769C3.27226 1.30312 4.60761 0.75 6 0.75C7.39239 0.75 8.72774 1.30312 9.71231 2.28769C10.6969 3.27226 11.25 4.60761 11.25 6C11.25 7.39239 10.6969 8.72774 9.71231 9.71231C8.72774 10.6969 7.39239 11.25 6 11.25ZM6 12C7.5913 12 9.11742 11.3679 10.2426 10.2426C11.3679 9.11742 12 7.5913 12 6C12 4.4087 11.3679 2.88258 10.2426 1.75736C9.11742 0.632141 7.5913 0 6 0C4.4087 0 2.88258 0.632141 1.75736 1.75736C0.632141 2.88258 0 4.4087 0 6C0 7.5913 0.632141 9.11742 1.75736 10.2426C2.88258 11.3679 4.4087 12 6 12Z" fill="#CA3E47"/>
<path id="Vector_2" d="M3.4845 3.48456C3.51933 3.44964 3.56071 3.42193 3.60627 3.40303C3.65183 3.38412 3.70067 3.37439 3.75 3.37439C3.79932 3.37439 3.84817 3.38412 3.89372 3.40303C3.93928 3.42193 3.98066 3.44964 4.0155 3.48456L6 5.46981L7.9845 3.48456C8.01936 3.44969 8.06076 3.42204 8.10631 3.40317C8.15187 3.3843 8.20069 3.37459 8.25 3.37459C8.29931 3.37459 8.34813 3.3843 8.39369 3.40317C8.43924 3.42204 8.48063 3.44969 8.5155 3.48456C8.55036 3.51943 8.57802 3.56082 8.59689 3.60637C8.61576 3.65193 8.62547 3.70075 8.62547 3.75006C8.62547 3.79937 8.61576 3.84819 8.59689 3.89375C8.57802 3.9393 8.55036 3.98069 8.5155 4.01556L6.53025 6.00006L8.5155 7.98456C8.55036 8.01943 8.57802 8.06082 8.59689 8.10637C8.61576 8.15193 8.62547 8.20075 8.62547 8.25006C8.62547 8.29937 8.61576 8.34819 8.59689 8.39375C8.57802 8.4393 8.55036 8.48069 8.5155 8.51556C8.48063 8.55043 8.43924 8.57808 8.39369 8.59695C8.34813 8.61582 8.29931 8.62553 8.25 8.62553C8.20069 8.62553 8.15187 8.61582 8.10631 8.59695C8.06076 8.57808 8.01936 8.55043 7.9845 8.51556L6 6.53031L4.0155 8.51556C3.98063 8.55043 3.93924 8.57808 3.89369 8.59695C3.84813 8.61582 3.79931 8.62553 3.75 8.62553C3.70069 8.62553 3.65187 8.61582 3.60631 8.59695C3.56076 8.57808 3.51936 8.55043 3.4845 8.51556C3.44963 8.48069 3.42198 8.4393 3.40311 8.39375C3.38424 8.34819 3.37452 8.29937 3.37452 8.25006C3.37452 8.20075 3.38424 8.15193 3.40311 8.10637C3.42198 8.06082 3.44963 8.01943 3.4845 7.98456L5.46975 6.00006L3.4845 4.01556C3.44958 3.98073 3.42187 3.93934 3.40296 3.89379C3.38406 3.84823 3.37433 3.79939 3.37433 3.75006C3.37433 3.70073 3.38406 3.65189 3.40296 3.60633C3.42187 3.56078 3.44958 3.51939 3.4845 3.48456Z" fill="#CA3E47"/>
</g>
<defs>
<clipPath id="clip0_222_141">
<rect width="12" height="12" fill="white"/>
</clipPath>
</defs>
</svg>
